<svg width="111" height="18" viewBox="0 0 111 18" fill="none" xmlns="http://www.w3.org/2000/svg">
<path d="M9.59152 0.377304C9.3807 -0.125767 8.66275 -0.125769 8.45195 0.377302L6.40424 5.26424C6.31537 5.47632 6.11443 5.62123 5.88377 5.63959L0.568652 6.06254C0.0215053 6.10609 -0.200357 6.78386 0.216512 7.13832L4.26607 10.5815C4.44181 10.731 4.51856 10.9655 4.46487 11.1889L3.22767 16.3372C3.1003 16.8672 3.68115 17.2861 4.14959 17.0021L8.70007 14.2432C8.89755 14.1235 9.14594 14.1235 9.34338 14.2432L13.8938 17.0021C14.3623 17.2861 14.9431 16.8672 14.8158 16.3372L13.5786 11.1889C13.5249 10.9655 13.6016 10.731 13.7774 10.5815L17.8269 7.13832C18.2438 6.78386 18.022 6.10609 17.4748 6.06254L12.1597 5.63959C11.929 5.62123 11.7281 5.47632 11.6393 5.26424L9.59152 0.377304Z" fill="#FFDD2D"/>
<path d="M32.635 0.377304C32.4242 -0.125767 31.7062 -0.125769 31.4954 0.377302L29.4477 5.26424C29.3588 5.47632 29.1579 5.62123 28.9272 5.63959L23.6121 6.06254C23.065 6.10609 22.8431 6.78386 23.26 7.13832L27.3095 10.5815C27.4853 10.731 27.562 10.9655 27.5083 11.1889L26.2711 16.3372C26.1438 16.8672 26.7246 17.2861 27.193 17.0021L31.7435 14.2432C31.941 14.1235 32.1894 14.1235 32.3868 14.2432L36.9373 17.0021C37.4058 17.2861 37.9866 16.8672 37.8592 16.3372L36.622 11.1889C36.5684 10.9655 36.6451 10.731 36.8209 10.5815L40.8704 7.13832C41.2873 6.78386 41.0654 6.10609 40.5183 6.06254L35.2031 5.63959C34.9725 5.62123 34.7715 5.47632 34.6827 5.26424L32.635 0.377304Z" fill="#FFDD2D"/>
<path d="M55.5915 0.377304C55.3807 -0.125767 54.6627 -0.125769 54.452 0.377302L52.4042 5.26424C52.3154 5.47632 52.1144 5.62123 51.8838 5.63959L46.5687 6.06254C46.0215 6.10609 45.7996 6.78386 46.2165 7.13832L50.2661 10.5815C50.4418 10.731 50.5186 10.9655 50.4649 11.1889L49.2277 16.3372C49.1003 16.8672 49.6811 17.2861 50.1496 17.0021L54.7001 14.2432C54.8975 14.1235 55.1459 14.1235 55.3434 14.2432L59.8938 17.0021C60.3623 17.2861 60.9431 16.8672 60.8158 16.3372L59.5786 11.1889C59.5249 10.9655 59.6016 10.731 59.7774 10.5815L63.8269 7.13832C64.2438 6.78386 64.022 6.10609 63.4748 6.06254L58.1597 5.63959C57.929 5.62123 57.7281 5.47632 57.6393 5.26424L55.5915 0.377304Z" fill="#FFDD2D"/>
<path d="M78.5915 0.377304C78.3807 -0.125767 77.6627 -0.125769 77.452 0.377302L75.4042 5.26424C75.3154 5.47632 75.1144 5.62123 74.8838 5.63959L69.5687 6.06254C69.0215 6.10609 68.7996 6.78386 69.2165 7.13832L73.2661 10.5815C73.4418 10.731 73.5186 10.9655 73.4649 11.1889L72.2277 16.3372C72.1003 16.8672 72.6811 17.2861 73.1496 17.0021L77.7001 14.2432C77.8975 14.1235 78.1459 14.1235 78.3434 14.2432L82.8938 17.0021C83.3623 17.2861 83.9431 16.8672 83.8158 16.3372L82.5786 11.1889C82.5249 10.9655 82.6016 10.731 82.7774 10.5815L86.8269 7.13832C87.2438 6.78386 87.022 6.10609 86.4748 6.06254L81.1597 5.63959C80.929 5.62123 80.7281 5.47632 80.6393 5.26424L78.5915 0.377304Z" fill="#FFDD2D"/>
<path d="M101.592 0.377304C101.381 -0.125767 100.663 -0.125769 100.452 0.377302L98.4042 5.26424C98.3154 5.47632 98.1144 5.62123 97.8838 5.63959L92.5687 6.06254C92.0215 6.10609 91.7996 6.78386 92.2165 7.13832L96.2661 10.5815C96.4418 10.731 96.5186 10.9655 96.4649 11.1889L95.2277 16.3372C95.1003 16.8672 95.6811 17.2861 96.1496 17.0021L100.7 14.2432C100.898 14.1235 101.146 14.1235 101.343 14.2432L105.894 17.0021C106.362 17.2861 106.943 16.8672 106.816 16.3372L105.579 11.1889C105.525 10.9655 105.602 10.731 105.777 10.5815L109.827 7.13832C110.244 6.78386 110.022 6.10609 109.475 6.06254L104.16 5.63959C103.929 5.62123 103.728 5.47632 103.639 5.26424L101.592 0.377304Z" fill="#FFDD2D"/>
</svg>
