<svg width="30" height="30" viewBox="0 0 30 30" fill="none" xmlns="http://www.w3.org/2000/svg">
<rect width="30" height="30" fill="white"/>
<path d="M30 15C30 6.71573 23.2843 0 15 0C6.71573 0 0 6.71573 0 15C0 23.2843 6.71573 30 15 30C23.2843 30 30 23.2843 30 15Z" fill="#419FD9"/>
<path d="M30 15C30 6.71573 23.2843 0 15 0C6.71573 0 0 6.71573 0 15C0 23.2843 6.71573 30 15 30C23.2843 30 30 23.2843 30 15Z" fill="url(#paint0_linear_265_2900)"/>
<path d="M6.74212 14.6693C11.1042 12.7289 14.0129 11.4497 15.4683 10.8316C19.6237 9.06688 20.4872 8.76032 21.05 8.75013C21.1738 8.748 21.4505 8.77932 21.6298 8.92782C21.7812 9.05325 21.8228 9.22269 21.8427 9.34157C21.8627 9.4605 21.8875 9.73138 21.8678 9.943C21.6426 12.3588 20.6683 18.2212 20.1725 20.9269C19.9628 22.0718 19.5498 22.4556 19.1499 22.4932C18.281 22.5748 17.6211 21.9069 16.7796 21.3436C15.4626 20.4622 14.7186 19.9134 13.4402 19.0534C11.9629 18.0594 12.9206 17.5131 13.7626 16.6202C13.9829 16.3866 17.8114 12.8309 17.8856 12.5084C17.8948 12.4681 17.9034 12.3177 17.8159 12.2383C17.7284 12.1589 17.5993 12.1861 17.5061 12.2076C17.3741 12.2383 15.2702 13.6581 11.1946 16.4671C10.5974 16.8858 10.0565 17.0897 9.57187 17.079C9.03762 17.0673 8.00994 16.7706 7.24594 16.5171C6.30887 16.206 5.56409 16.0416 5.62894 15.5134C5.66272 15.2383 6.03377 14.9569 6.74212 14.6693Z" fill="white"/>
<defs>
<linearGradient id="paint0_linear_265_2900" x1="15" y1="0" x2="15" y2="29.7775" gradientUnits="userSpaceOnUse">
<stop stop-color="#2AABEE"/>
<stop offset="1" stop-color="#229ED9"/>
</linearGradient>
</defs>
</svg>
