<svg width="30" height="30" viewBox="0 0 30 30" fill="none" xmlns="http://www.w3.org/2000/svg">
<rect width="30" height="30" fill="white"/>
<path d="M30 15C30 6.71573 23.2843 0 15 0C6.71573 0 0 6.71573 0 15C0 23.2843 6.71573 30 15 30C23.2843 30 30 23.2843 30 15Z" fill="#675DA9"/>
<path d="M22.346 7.61531C21.8498 7.15919 19.8411 5.69864 15.3634 5.67863C15.3634 5.67863 10.0855 5.35851 7.51256 7.71938C6.08002 9.15188 5.57584 11.2447 5.52382 13.8456C5.47181 16.4426 5.40378 21.3124 10.0975 22.6328H10.1015L10.0975 24.6456C10.0975 24.6456 10.0695 25.4619 10.6057 25.6259C11.2539 25.826 11.6381 25.2057 12.2583 24.5375C12.5984 24.1694 13.0666 23.6332 13.4227 23.2211C16.6319 23.4891 19.1008 22.8729 19.3809 22.7809C20.0291 22.5688 23.6985 22.1006 24.2947 17.2309C24.9109 12.221 23.9946 9.04788 22.346 7.61531ZM22.8902 16.8787C22.386 20.9442 19.4129 21.2003 18.8647 21.3764C18.6326 21.4524 16.4638 21.9926 13.7348 21.8125C13.7348 21.8125 11.7021 24.2654 11.0699 24.9017C10.9698 25.0017 10.8537 25.0417 10.7777 25.0217C10.6697 24.9937 10.6377 24.8656 10.6417 24.6776C10.6417 24.4055 10.6577 21.3284 10.6577 21.3284C10.6537 21.3284 10.6537 21.3284 10.6577 21.3284C6.68425 20.2279 6.91631 16.0824 6.96037 13.9136C7.00437 11.7449 7.4125 9.96419 8.62494 8.76775C10.7977 6.79906 15.2834 7.09113 15.2834 7.09113C19.0687 7.10713 20.8814 8.24756 21.3016 8.62769C22.6981 9.82813 23.4104 12.6892 22.8902 16.8787Z" fill="white"/>
<path d="M17.2081 13.9897C17.0761 13.9897 16.964 13.8856 16.956 13.7496C16.912 12.8893 16.5079 12.4691 15.6836 12.4251C15.5435 12.4171 15.4354 12.2971 15.4434 12.157C15.4514 12.017 15.5715 11.909 15.7116 11.917C16.7999 11.977 17.4082 12.6012 17.4642 13.7216C17.4722 13.8616 17.3642 13.9817 17.2241 13.9857C17.2161 13.9897 17.2121 13.9897 17.2081 13.9897Z" fill="white"/>
<path d="M18.5046 14.4219H18.5006C18.3605 14.4179 18.2485 14.3019 18.2525 14.1618C18.2725 13.2975 18.0244 12.5973 17.4962 12.021C16.972 11.4448 16.2478 11.1327 15.2914 11.0647C15.1513 11.0527 15.0473 10.9326 15.0593 10.7926C15.0713 10.6525 15.1914 10.5485 15.3314 10.5605C16.4118 10.6405 17.2641 11.0166 17.8723 11.6809C18.4846 12.3491 18.7807 13.1855 18.7607 14.1738C18.7567 14.3139 18.6406 14.4219 18.5046 14.4219Z" fill="white"/>
<path d="M19.8331 14.9421C19.693 14.9421 19.5809 14.83 19.5809 14.6899C19.5689 13.1414 19.1248 11.9609 18.2204 11.0766C17.3281 10.2043 16.1957 9.76012 14.8633 9.74812C14.7232 9.74812 14.6111 9.63212 14.6111 9.49205C14.6111 9.35199 14.7272 9.23993 14.8633 9.23993C16.3318 9.25193 17.5802 9.74412 18.5686 10.7125C19.5609 11.6809 20.0691 13.0173 20.0851 14.6819C20.0891 14.826 19.9771 14.9421 19.8331 14.9421C19.8371 14.9421 19.8371 14.9421 19.8331 14.9421ZM15.7436 17.1227C15.7436 17.1227 16.0997 17.1548 16.2918 16.9187L16.6639 16.4506C16.8439 16.2184 17.2801 16.0704 17.7043 16.3065C17.9404 16.4385 18.3685 16.7026 18.6326 16.8987C18.9167 17.1067 19.4929 17.5869 19.4969 17.5909C19.773 17.8231 19.8371 18.1632 19.649 18.5273C19.649 18.5273 19.649 18.5313 19.649 18.5353C19.4569 18.8754 19.1968 19.1956 18.8727 19.4916C18.8687 19.4916 18.8687 19.4956 18.8647 19.4956C18.5966 19.7197 18.3325 19.8477 18.0764 19.8758C18.0444 19.8838 18.0084 19.8838 17.9604 19.8838C17.8483 19.8838 17.7363 19.8678 17.6243 19.8317L17.6163 19.8197C17.2161 19.7077 16.5518 19.4276 15.4474 18.8154C14.7272 18.4192 14.1309 18.0151 13.6228 17.6109C13.3547 17.3989 13.0826 17.1628 12.8025 16.8827C12.7944 16.8747 12.7824 16.8627 12.7744 16.8547C12.7664 16.8467 12.7544 16.8347 12.7464 16.8267C12.7384 16.8187 12.7264 16.8067 12.7184 16.7987C12.7104 16.7907 12.6984 16.7786 12.6904 16.7706C12.4143 16.4906 12.1743 16.2184 11.9622 15.9504C11.558 15.4462 11.1539 14.8459 10.7578 14.1257C10.1455 13.0172 9.86538 12.3531 9.75338 11.9569L9.74138 11.9489C9.70532 11.8369 9.68932 11.7248 9.68932 11.6127C9.68932 11.5647 9.68932 11.5287 9.69732 11.4967C9.72938 11.2366 9.85738 10.9765 10.0775 10.7084C10.0775 10.7044 10.0815 10.7044 10.0815 10.7004C10.3776 10.3723 10.6977 10.1162 11.0378 9.92412C11.0378 9.92412 11.0418 9.92412 11.0458 9.92412C11.4059 9.73605 11.7461 9.80012 11.9822 10.0762C11.9822 10.0762 12.4664 10.6564 12.6744 10.9405C12.8705 11.2086 13.1346 11.6327 13.2666 11.8689C13.5028 12.293 13.3547 12.7292 13.1226 12.9092L12.6544 13.2814C12.4183 13.4734 12.4503 13.8296 12.4503 13.8296C12.4503 13.8296 13.1426 16.4626 15.7436 17.1227Z" fill="white"/>
</svg>
